{
  "accessors": [
    {
      "bufferView": 2,
      "componentType": 5126,
      "count": 24,
      "max": [
        1.0,
        1.0,
        1.0
      ],
      "min": [
        -1.0,
        -1.0,
        -1.0
      ],
      "type": "VEC3"
    },
    {
      "bufferView": 2,
      "byteOffset": 288,
      "componentType": 5126,
      "count": 24,
      "max": [
        1.0,
        1.0,
        1.0
      ],
      "min": [
        -1.0,
        -1.0,
        -1.0
      ],
      "type": "VEC3"
    },
    {
      "bufferView": 1,
      "componentType": 5126,
      "count": 24,
      "max": [
        0.7499567270278931,
        0.9999133944511414
      ],
      "min": [
        8.658754813950509e-05,
        8.660554885864258e-05
      ],
      "type": "VEC2"
    },
    {
      "bufferView": 0,
      "componentType": 5125,
      "count": 36,
      "type": "SCALAR"
    },
    {
      "bufferView": 2,
      "byteOffset": 576,
      "componentType": 5126,
      "count": 65532,
      "max": [
        1.4823848009109497,
        0.9111061096191406,
        1.3893530368804932
      ],
      "min": [
        -2.2258121967315674,
        -0.7806758880615234,
        -1.1353029012680054
      ],
      "type": "VEC3"
    },
    {
      "bufferView": 2,
      "byteOffset": 786960,
      "componentType": 5126,
      "count": 65532,
      "max": [
        0.9992861151695251,
        0.9999985098838806,
        0.9999566674232483
      ],
      "min": [
        -0.9998824596405029,
        -0.9999764561653137,
        -0.9999672770500183
      ],
      "type": "VEC3"
    },
    {
      "bufferView": 1,
      "byteOffset": 192,
      "componentType": 5126,
      "count": 65532,
      "max": [
        0.9994540214538574,
        0.9979519844055176
      ],
      "min": [
        0.000299000006634742,
        0.0002790093421936035
      ],
      "type": "VEC2"
    },
    {
      "bufferView": 0,
      "byteOffset": 144,
      "componentType": 5125,
      "count": 271812,
      "type": "SCALAR"
    },
    {
      "bufferView": 2,
      "byteOffset": 1573344,
      "componentType": 5126,
      "count": 65532,
      "max": [
        1.9055657386779785,
        0.8690567016601563,
        1.3940941095352173
      ],
      "min": [
        -2.229860305786133,
        -0.7935161590576172,
        -1.2059040069580078
      ],
      "type": "VEC3"
    },
    {
      "bufferView": 2,
      "byteOffset": 2359728,
      "componentType": 5126,
      "count": 65532,
      "max": [
        0.9992861151695251,
        0.9999703168869019,
        0.9998770356178284
      ],
      "min": [
        -0.9997817277908325,
        -0.9998307228088379,
        -0.9999724626541138
      ],
      "type": "VEC3"
    },
    {
      "bufferView": 1,
      "byteOffset": 524448,
      "componentType": 5126,
      "count": 65532,
      "max": [
        0.999584972858429,
        0.9995409846305847
      ],
      "min": [
        0.0002859999949578196,
        0.00028198957443237305
      ],
      "type": "VEC2"
    },
    {
      "bufferView": 0,
      "byteOffset": 1087392,
      "componentType": 5125,
      "count": 201009,
      "type": "SCALAR"
    },
    {
      "bufferView": 2,
      "byteOffset": 3146112,
      "componentType": 5126,
      "count": 65532,
      "max": [
        1.964865803718567,
        0.9228992462158203,
        1.399082064628601
      ],
      "min": [
        -2.2331342697143555,
        -0.7969827651977539,
        -1.0975708961486816
      ],
      "type": "VEC3"
    },
    {
      "bufferView": 2,
      "byteOffset": 3932496,
      "componentType": 5126,
      "count": 65532,
      "max": [
        0.9999880790710449,
        0.9997105598449707,
        0.9999112486839294
      ],
      "min": [
        -0.9999940395355225,
        -0.9999873042106628,
        -0.9999830722808838
      ],
      "type": "VEC3"
    },
    {
      "bufferView": 1,
      "byteOffset": 1048704,
      "componentType": 5126,
      "count": 65532,
      "max": [
        0.9996730089187622,
        0.999576985836029
      ],
      "min": [
        0.0002789999998640269,
        0.000276029109954834
      ],
      "type": "VEC2"
    },
    {
      "bufferView": 0,
      "byteOffset": 1891428,
      "componentType": 5125,
      "count": 122907,
      "type": "SCALAR"
    },
    {
      "bufferView": 2,
      "byteOffset": 4718880,
      "componentType": 5126,
      "count": 65534,
      "max": [
        0.03431380167603493,
        0.3695487976074219,
        0.8668710589408875
      ],
      "min": [
        -1.7275182008743286,
        -0.7837181091308594,
        -1.0024819374084473
      ],
      "type": "VEC3"
    },
    {
      "bufferView": 2,
      "byteOffset": 5505288,
      "componentType": 5126,
      "count": 65534,
      "max": [
        0.9999670386314392,
        0.9999985098838806,
        0.9995577931404114
      ],
      "min": [
        -0.9988096356391907,
        -0.999732494354248,
        -0.998629629611969
      ],
      "type": "VEC3"
    },
    {
      "bufferView": 1,
      "byteOffset": 1572960,
      "componentType": 5126,
      "count": 65534,
      "max": [
        0.9995949864387512,
        0.9995660185813904
      ],
      "min": [
        0.0002899999963119626,
        0.00028198957443237305
      ],
      "type": "VEC2"
    },
    {
      "bufferView": 0,
      "byteOffset": 2383056,
      "componentType": 5125,
      "count": 178599,
      "type": "SCALAR"
    },
    {
      "bufferView": 2,
      "byteOffset": 6291696,
      "componentType": 5126,
      "count": 65534,
      "max": [
        1.9867427349090576,
        0.9077987670898438,
        1.396562099456787
      ],
      "min": [
        -2.2315831184387207,
        -0.7951269149780273,
        -1.218201994895935
      ],
      "type": "VEC3"
    },
    {
      "bufferView": 2,
      "byteOffset": 7078104,
      "componentType": 5126,
      "count": 65534,
      "max": [
        0.9999550580978394,
        0.9999526143074036,
        0.9999838471412659
      ],
      "min": [
        -0.9998866319656372,
        -0.9999764561653137,
        -0.9999830722808838
      ],
      "type": "VEC3"
    },
    {
      "bufferView": 1,
      "byteOffset": 2097232,
      "componentType": 5126,
      "count": 65534,
      "max": [
        0.9995539784431458,
        0.9995419979095459
      ],
      "min": [
        0.00027600000612437725,
        0.00027698278427124023
      ],
      "type": "VEC2"
    },
    {
      "bufferView": 0,
      "byteOffset": 3097452,
      "componentType": 5125,
      "count": 91449,
      "type": "SCALAR"
    },
    {
      "bufferView": 2,
      "byteOffset": 7864512,
      "componentType": 5126,
      "count": 40068,
      "max": [
        0.8104007840156555,
        0.9228992462158203,
        0.4032570719718933
      ],
      "min": [
        -0.008225196041166782,
        -0.35041141510009766,
        -1.0170209407806396
      ],
      "type": "VEC3"
    },
    {
      "bufferView": 2,
      "byteOffset": 8345328,
      "componentType": 5126,
      "count": 40068,
      "max": [
        0.9999476075172424,
        0.9999200105667114,
        0.999973475933075
      ],
      "min": [
        -0.9998824596405029,
        -0.999921441078186,
        -0.9999724626541138
      ],
      "type": "VEC3"
    },
    {
      "bufferView": 1,
      "byteOffset": 2621504,
      "componentType": 5126,
      "count": 40068,
      "max": [
        0.9997050166130066,
        0.9994210004806519
      ],
      "min": [
        0.0002800000074785203,
        0.000276029109954834
      ],
      "type": "VEC2"
    },
    {
      "bufferView": 0,
      "byteOffset": 3463248,
      "componentType": 5125,
      "count": 55131,
      "type": "SCALAR"
    }
  ],
  "asset": {
    "extras": {
      "author": "ffish.asia / floraZia.com (https://sketchfab.com/ffishAsia-and-floraZia)",
      "license": "CC-BY-4.0 (http://creativecommons.org/licenses/by/4.0/)",
      "source": "https://sketchfab.com/3d-models/migratory-locust-locust-migratoria-8507373ef53949feaae43bdee5aaf21f",
      "title": "トノサマバッタ ♀ Migratory Locust, Locust migratoria"
    },
    "generator": "Sketchfab-11.90.0",
    "version": "2.0"
  },
  "bufferViews": [
    {
      "buffer": 0,
      "byteLength": 3683772,
      "name": "floatBufferViews",
      "target": 34963
    },
    {
      "buffer": 0,
      "byteLength": 2942048,
      "byteOffset": 3683772,
      "byteStride": 8,
      "name": "floatBufferViews",
      "target": 34962
    },
    {
      "buffer": 0,
      "byteLength": 8826144,
      "byteOffset": 6625820,
      "byteStride": 12,
      "name": "floatBufferViews",
      "target": 34962
    }
  ],
  "buffers": [
    {
      "byteLength": 15451964,
      "uri": "scene.bin"
    }
  ],
  "extensionsUsed": [
    "KHR_materials_unlit"
  ],
  "images": [
    {
      "uri": "textures/Material.001_baseColor.jpeg"
    },
    {
      "uri": "textures/Q11504-1all-2_baseColor.jpeg"
    }
  ],
  "materials": [
    {
      "doubleSided": true,
      "extensions": {
        "KHR_materials_unlit": {}
      },
      "name": "Material.001",
      "pbrMetallicRoughness": {
        "baseColorTexture": {
          "index": 0
        },
        "metallicFactor": 0.0
      }
    },
    {
      "doubleSided": true,
      "extensions": {
        "KHR_materials_unlit": {}
      },
      "name": "Q11504-1all-2",
      "pbrMetallicRoughness": {
        "baseColorTexture": {
          "index": 1
        },
        "metallicFactor": 0.0
      }
    }
  ],
  "meshes": [
    {
      "name": "Object_0",
      "primitives": [
        {
          "attributes": {
            "NORMAL": 1,
            "POSITION": 0,
            "TEXCOORD_0": 2
          },
          "indices": 3,
          "material": 0,
          "mode": 4
        }
      ]
    },
    {
      "name": "Object_1",
      "primitives": [
        {
          "attributes": {
            "NORMAL": 5,
            "POSITION": 4,
            "TEXCOORD_0": 6
          },
          "indices": 7,
          "material": 1,
          "mode": 4
        }
      ]
    },
    {
      "name": "Object_2",
      "primitives": [
        {
          "attributes": {
            "NORMAL": 9,
            "POSITION": 8,
            "TEXCOORD_0": 10
          },
          "indices": 11,
          "material": 1,
          "mode": 4
        }
      ]
    },
    {
      "name": "Object_3",
      "primitives": [
        {
          "attributes": {
            "NORMAL": 13,
            "POSITION": 12,
            "TEXCOORD_0": 14
          },
          "indices": 15,
          "material": 1,
          "mode": 4
        }
      ]
    },
    {
      "name": "Object_4",
      "primitives": [
        {
          "attributes": {
            "NORMAL": 17,
            "POSITION": 16,
            "TEXCOORD_0": 18
          },
          "indices": 19,
          "material": 1,
          "mode": 4
        }
      ]
    },
    {
      "name": "Object_5",
      "primitives": [
        {
          "attributes": {
            "NORMAL": 21,
            "POSITION": 20,
            "TEXCOORD_0": 22
          },
          "indices": 23,
          "material": 1,
          "mode": 4
        }
      ]
    },
    {
      "name": "Object_6",
      "primitives": [
        {
          "attributes": {
            "NORMAL": 25,
            "POSITION": 24,
            "TEXCOORD_0": 26
          },
          "indices": 27,
          "material": 1,
          "mode": 4
        }
      ]
    }
  ],
  "nodes": [
    {
      "children": [
        1
      ],
      "matrix": [
        1.0,
        0.0,
        0.0,
        0.0,
        0.0,
        2.220446049250313e-16,
        -1.0,
        0.0,
        0.0,
        1.0,
        2.220446049250313e-16,
        0.0,
        0.0,
        0.0,
        0.0,
        1.0
      ],
      "name": "Sketchfab_model"
    },
    {
      "children": [
        2
      ],
      "name": "root"
    },
    {
      "children": [
        3,
        5
      ],
      "matrix": [
        1.0,
        0.0,
        0.0,
        0.0,
        0.0,
        2.220446049250313e-16,
        1.0,
        0.0,
        0.0,
        -1.0,
        2.220446049250313e-16,
        0.0,
        0.0,
        0.0,
        0.0,
        1.0
      ],
      "name": "GLTF_SceneRootNode"
    },
    {
      "children": [
        4
      ],
      "matrix": [
        -0.0005508633414607293,
        -0.2973936321139053,
        0.0010607393543153045,
        0.0,
        0.00137297104214889,
        -0.0010632731032756111,
        -0.2973909937562177,
        0.0,
        0.29739241414715023,
        -0.0005459570062513356,
        0.001374929580127982,
        0.0,
        3.130721092224121,
        -0.0004217289388179779,
        0.01802748441696167,
        1.0
      ],
      "name": "Cube_2"
    },
    {
      "mesh": 0,
      "name": "Object_4"
    },
    {
      "children": [
        6,
        7,
        8,
        9,
        10,
        11
      ],
      "matrix": [
        -0.9046360387452455,
        0.2611583433896659,
        0.33679364168771997,
        0.0,
        -0.0800416508315271,
        -0.8803012905886183,
        0.46761412716060785,
        0.0,
        0.41860120823460945,
        0.39606307258564083,
        0.8172558173537503,
        0.0,
        0.0,
        0.0,
        0.0,
        1.0
      ],
      "name": "Q11504-1all-2_5"
    },
    {
      "mesh": 1,
      "name": "Object_6"
    },
    {
      "mesh": 2,
      "name": "Object_7"
    },
    {
      "mesh": 3,
      "name": "Object_8"
    },
    {
      "mesh": 4,
      "name": "Object_9"
    },
    {
      "mesh": 5,
      "name": "Object_10"
    },
    {
      "mesh": 6,
      "name": "Object_11"
    }
  ],
  "samplers": [
    {
      "magFilter": 9729,
      "minFilter": 9987,
      "wrapS": 10497,
      "wrapT": 10497
    }
  ],
  "scene": 0,
  "scenes": [
    {
      "name": "Sketchfab_Scene",
      "nodes": [
        0
      ]
    }
  ],
  "textures": [
    {
      "sampler": 0,
      "source": 0
    },
    {
      "sampler": 0,
      "source": 1
    }
  ]
}
